<?xml version="1.0" encoding="UTF-8"?>
<svg width="36px" height="34px" viewBox="0 0 36 34" version="1.1" xmlns="http://www.w3.org/2000/svg" xmlns:xlink="http://www.w3.org/1999/xlink">
    <!-- Generator: Sketch 49 (51002) - http://www.bohemiancoding.com/sketch -->
    <title>Autodesk_mini_logo</title>
    <desc>Created with Sketch.</desc>
    <defs></defs>
    <g id="Autodesk_mini_logo" stroke="none" stroke-width="1" fill="none" fill-rule="evenodd">
        <g id="mini" fill="#FFFFFF">
            <path d="M2.43821893,25.0878221 C0.159822103,25.0878221 -0.298402958,23.7258754 0.159822103,22.5803127 L0.159822103,22.8094252 C-0.0692904275,23.7258754 0.159822103,24.4004845 0.618047163,24.8587095 C1.76360981,26.9079938 4.94572829,32.8394627 4.94572829,32.8394627 C5.40395335,33.5268003 5.86217841,33.9850253 6.76590006,33.9850253 C8.58607183,33.9850253 11.5518062,32.1648536 11.5518062,32.1648536 L22.4982938,25.3296631 L8.36968777,25.3296631 L8.36968777,25.0878221 L2.43821893,25.0878221 Z" id="Shape"></path>
            <path d="M10.6480846,0.0127284739 C9.50252195,0.0127284739 9.05702536,0.700066065 9.05702536,0.929178595 L0.159822103,22.3639287 C-0.298402958,23.5094913 0.159822103,25.1005505 2.43821893,25.1005505 L8.36968777,25.1005505 L15.2048783,8.6808192 C13.613819,4.35313808 12.2391438,1.15829113 12.2391438,1.15829113 C12.0227598,0.916450121 11.7936473,0.0127284739 10.6480846,0.0127284739 L10.6480846,0.0127284739 Z" id="Shape"></path>
            <path d="M21.5945722,0.916450121 C21.5945722,0.687337591 21.1363471,0 20.2326255,0 L10.6480846,0 C9.73163448,0 9.28613789,0.687337591 9.28613789,0.916450121 C9.28613789,0.916450121 9.51525042,0.22911253 10.6480846,0.22911253 C11.7809188,0.22911253 12.0100313,1.14556265 12.2391438,1.37467518 C12.2391438,1.37467518 13.6010905,4.56952213 15.4339908,8.89720326 C19.5325594,18.4690156 25.9222533,33.9722969 25.9222533,33.9722969 L35.4940657,33.9722969 C35.5067941,33.7559128 21.5945722,1.14556265 21.5945722,0.916450121 L21.5945722,0.916450121 Z" id="Shape"></path>
        </g>
    </g>
</svg>