<?xml version="1.0" encoding="UTF-8"?>
<svg width="180px" height="81px" viewBox="0 0 180 81" version="1.1" xmlns="http://www.w3.org/2000/svg" xmlns:xlink="http://www.w3.org/1999/xlink">
    <!-- Generator: Sketch 49 (51002) - http://www.bohemiancoding.com/sketch -->
    <title>Sb icons</title>
    <desc>Created with Sketch.</desc>
    <defs>
        <rect id="path-1" x="0" y="0" width="180" height="78"></rect>
        <linearGradient x1="-0.00184135977%" y1="50.0207454%" x2="99.8610482%" y2="50.0207454%" id="linearGradient-3">
            <stop stop-color="#FFF5D1" offset="0%"></stop>
            <stop stop-color="#FCEFCC" offset="35%"></stop>
            <stop stop-color="#C49E8A" offset="100%"></stop>
        </linearGradient>
        <linearGradient x1="126.390357%" y1="89.1176471%" x2="-26.3771106%" y2="26.7581551%" id="linearGradient-4">
            <stop stop-color="#B38184" offset="35.34%"></stop>
            <stop stop-color="#C4987D" offset="99.27%"></stop>
        </linearGradient>
    </defs>
    <g id="Sb-icons" stroke="none" stroke-width="1" fill="none" fill-rule="evenodd">
        <g id="logo" transform="translate(0.000000, 3.000000)">
            <mask id="mask-2" fill="white">
                <use xlink:href="#path-1"></use>
            </mask>
            <g id="Mask"></g>
            <g mask="url(#mask-2)">
                <g transform="translate(70.000000, 5.000000)">
                    <path d="M22.8671679,2.25200246 L21.3784461,0.837954405 C20.7719298,0.261860752 20.3308271,0 20,0 L28.160401,56.1953173 L28.160401,85 L28.2706767,85 L42,85 L42,55.3573629 C42,55.3573629 42,54.2575478 41.7794486,53.5767098 C41.5037594,52.8434997 22.8671679,2.25200246 22.8671679,2.25200246 L22.8671679,2.25200246 Z" id="XMLID_10_" fill="#232020" opacity="0.2"></path>
                    <path d="M12.7053824,16.464135 L0.386685552,52.0070323 C0.386685552,52.0070323 0,55.1814346 0,57.5752461 C0,57.5752461 0.0552407932,84.8438819 0.110481586,85 L0.220963173,85 L0.220963173,85 L19.0028329,84.9479606 L19.5,84.9479606 L19.9971671,84.9479606 L38.7790368,85 L38.7790368,85 L38.8895184,85 C38.9447592,84.8438819 39,57.5752461 39,57.5752461 C39,55.1814346 38.5580737,52.1631505 38.5580737,52.1631505 L26.2946176,16.5161744 L19.5,11 L12.7053824,16.464135 L12.7053824,16.464135 Z" id="XMLID_9_" fill="url(#linearGradient-3)"></path>
                    <path d="M20,0 C19.5409836,0 18.6803279,0.611464968 18.5655738,0.815286624 C18.3360656,1.01910828 15.9836066,7.49044586 13,15.7452229 C15.295082,15.8980892 17.647541,16 20,16 C22.4098361,16 24.704918,15.8980892 27,15.7452229 C24.0163934,7.43949045 21.6639344,1.01910828 21.4344262,0.815286624 C20.8032787,0.25477707 20.3442623,0 20,0 L20,0 Z" id="XMLID_8_" fill="#414A56"></path>
                    <path d="M27.9752547,57.105615 C27.9752547,56.8970588 27.9195779,56.6885027 27.8082242,56.4799465 C25.9152111,50.9532086 23.7994905,47.1991979 20.8486172,46.2085561 L20.7929403,46.2085561 C20.6259098,46.1564171 20.4588792,46.1042781 20.2361718,46.1042781 C20.1804949,46.1042781 20.124818,46.1042781 20.124818,46.052139 C19.9021106,46 19.6794032,46 19.5123726,46 L19.5123726,46 L19.5123726,46 L19.5123726,46 L19.5123726,46 C16.0047307,46.1042781 13.3879185,50.118984 11.2165211,56.4799465 C11.1608443,56.6885027 11.0494905,56.8970588 11.0494905,57.105615 C11.0494905,57.105615 10.9381368,84.7393048 11.0494905,85 L19.5123726,85 L21.1270015,85 L21.9064774,85 L27.9752547,85 C28.0309316,84.7393048 27.9752547,57.105615 27.9752547,57.105615 L27.9752547,57.105615 Z" id="XMLID_7_" fill="url(#linearGradient-4)"></path>
                    <path d="M12,55.9234828 C10.5,49.5382586 8.13461538,45 5.76923077,45 C3.57692308,45 1.55769231,48.3773087 0.0576923077,53.9709763 C0.0576923077,54.0237467 0,54.3931398 0,54.5514512 L0,85 L12,85 C12,85 11.9423077,56.0817942 12,55.9234828 L12,55.9234828 Z" id="XMLID_6_" fill="#EFB29E"></path>
                    <path d="M28,55.9234828 C29.5,49.5382586 31.8653846,45 34.2307692,45 C36.4230769,45 38.4423077,48.3773087 39.9423077,53.9709763 C39.9423077,54.0237467 40,54.3931398 40,54.5514512 L40,85 L28,85 C28,85 28.0576923,56.0817942 28,55.9234828 L28,55.9234828 Z" id="XMLID_5_" fill="#4F6681"></path>
                    <path d="M20,0 L28.1757914,55.9160173 L28.1757914,84.577536 L74.0265135,84.577536 L124,85 L21.3810458,0.833789634 C20.7733857,0.260559261 20.331451,0 20,0 Z" id="XMLID_4_" fill="#232020" opacity="0.35"></path>
                </g>
            </g>
        </g>
    </g>
</svg>